<svg xmlns="http://www.w3.org/2000/svg" viewBox="0 0 100 100">
  <!-- Icono Git -->
  <defs>
    <linearGradient id="gitGrad" x1="0%" y1="0%" x2="100%" y2="100%">
      <stop offset="0%" style="stop-color:#F05033"/>
      <stop offset="100%" style="stop-color:#DE4C36"/>
    </linearGradient>
  </defs>
  <path fill="url(#gitGrad)" d="M95,45 L55,5 C52,2 48,2 45,5 L37,13 L47,23 C50,22 54,23 56,26 C59,29 59,33 58,36 L68,46 C71,45 75,46 77,49 C81,53 81,59 77,63 C73,67 67,67 63,63 C60,60 59,55 61,51 L52,42 L52,68 C53,69 54,70 55,71 C59,75 59,81 55,85 C51,89 45,89 41,85 C37,81 37,75 41,71 C42,70 44,69 45,68 L45,41 C44,40 42,39 41,38 C38,35 37,30 39,26 L29,16 L5,40 C2,43 2,48 5,51 L45,91 C48,94 52,94 55,91 L95,51 C98,48 98,43 95,45"/>
</svg>
